<svg width="171" height="34" viewBox="0 0 171 34" fill="none" xmlns="http://www.w3.org/2000/svg">
<g clip-path="url(#clip0_142_1760)">
<path d="M14.1362 29.416V4.92773C12.6081 5.88279 8.97893 8.02273 4.01264 9.16879C3.82163 15.0901 5.73174 25.2901 14.1362 29.416Z" fill="url(#paint0_linear_142_1760)"/>
<path fill-rule="evenodd" clip-rule="evenodd" d="M0.572509 5.92174C3.11933 5.73073 9.39722 4.31725 14.1343 0.191406C18.8714 4.31725 25.1493 5.73073 27.6961 5.92174C28.8422 12.7345 27.7343 27.3914 14.1343 33.8094C0.534306 27.3914 -0.573559 12.7345 0.572509 5.92174ZM5.43518 18.7683C4.2673 15.3813 3.96279 11.9479 4.07381 9.22196C6.92576 8.5807 10.6657 7.29454 14.1343 4.98327C17.6029 7.29454 21.3429 8.5807 24.1948 9.22196C24.3058 11.9479 24.0013 15.3813 22.8334 18.7683C21.4289 22.8416 18.8091 26.7874 14.1343 29.4999C9.45952 26.7874 6.83969 22.8416 5.43518 18.7683Z" fill="#009900"/>
<path d="M19.2931 24.8318C15.4423 22.2747 10.7613 23.7664 8.97852 24.8318C9.81048 26.0226 12.4167 28.461 14.1358 29.2251C15.8549 28.461 18.4612 26.0226 19.2931 24.8318Z" fill="#009900"/>
<path d="M14.8267 25.4044C14.6023 23.385 13.615 18.9614 11.4609 17.4228C12.5188 17.3587 14.6728 18.8653 14.8267 25.4044C14.987 21.8464 16.5384 14.2109 21.462 12.1338C19.5067 13.0634 15.5191 17.0189 15.2113 25.4044H15.4998C15.628 22.9362 16.7307 17.9421 20.1157 17.7113C18.8656 18.5447 16.2307 21.2501 15.6922 25.4044H15.4998H15.2113H14.8267Z" fill="#009900"/>
<path d="M12.4219 15.1142C13.1271 15.6813 14.576 17.5523 14.7298 20.4994C14.9606 16.0374 13.2874 15.0501 12.4219 15.1142Z" fill="#009900"/>
<path d="M17.7095 13.6719C17.4851 13.8962 17.1709 14.4604 17.7095 14.922C18.248 14.3835 17.9338 13.8642 17.7095 13.6719Z" fill="#009900"/>
<path d="M15.9785 15.5C15.8823 15.8526 15.8631 16.6155 16.5555 16.8463C16.9401 16.1539 16.3311 15.6603 15.9785 15.5Z" fill="#009900"/>
<path d="M16.7504 14.6338C16.6542 14.9864 16.6157 15.7108 17.2312 15.7878C17.5389 15.1723 17.0389 14.762 16.7504 14.6338Z" fill="#009900"/>
<path d="M18.4795 12.998C18.2871 13.2224 18.0179 13.7481 18.4795 14.0559C18.8693 13.7481 18.6419 13.2224 18.4795 12.998Z" fill="#009900"/>
<path d="M19.2495 12.3262C19.0892 12.5472 18.8648 13.0298 19.2495 13.1916C19.6341 13.0378 19.4098 12.5506 19.2495 12.3262Z" fill="#009900"/>
<path d="M20.2115 11.9414C20.0429 11.9735 19.7299 12.3261 19.8268 12.7107C20.2115 12.7107 20.2435 12.1338 20.2115 11.9414Z" fill="#009900"/>
<path d="M21.0773 11.5576C20.885 11.6217 20.5388 11.8461 20.6926 12.2308C20.8529 12.2308 21.1542 12.0962 21.0773 11.5576Z" fill="#009900"/>
<path d="M21.4591 11.9408C21.395 11.7805 21.3629 11.46 21.7476 11.46C21.7726 11.651 21.7476 11.842 21.4591 11.9408Z" fill="#009900"/>
<path d="M21.8457 11.9404C21.9098 11.8122 22.0381 11.6519 22.3265 11.7481C22.2304 11.9404 21.9739 12.0045 21.8457 11.9404Z" fill="#009900"/>
<path d="M17.1348 17.7115C17.263 17.3588 17.7695 16.7113 18.7696 16.9421C18.4618 17.7115 17.5515 17.7756 17.1348 17.7115Z" fill="#009900"/>
<path d="M17.7129 16.4615C17.9052 16.2051 18.4822 15.7307 19.2515 15.8845C18.8669 16.6538 18.0655 16.5897 17.7129 16.4615Z" fill="#009900"/>
<path d="M18.3848 15.4024C18.5451 15.178 19.0387 14.7869 19.7311 15.0177C19.4234 15.6332 18.7053 15.5306 18.3848 15.4024Z" fill="#009900"/>
<path d="M19.0586 14.5381C19.2189 14.3137 19.674 13.9227 20.2126 14.1535C19.9818 14.692 19.3471 14.6343 19.0586 14.5381Z" fill="#009900"/>
<path d="M19.7305 13.7674C19.8587 13.5751 20.1536 13.3443 20.6921 13.5751C20.5383 13.9598 20.0189 13.8316 19.7305 13.7674Z" fill="#009900"/>
<path d="M20.4023 13.0959C20.5626 12.9677 20.9601 12.7689 21.2679 12.9997C20.9601 13.3844 20.5626 13.2241 20.4023 13.0959Z" fill="#009900"/>
<path d="M21.1738 12.6146C21.3021 12.5184 21.6162 12.3645 21.847 12.5184C21.6162 12.8261 21.3021 12.7107 21.1738 12.6146Z" fill="#009900"/>
<path d="M21.6543 12.2303C21.7505 12.1342 21.9665 11.9658 22.2313 12.1342C21.9665 12.4161 21.8029 12.3265 21.6543 12.2303Z" fill="#009900"/>
</g>
<path d="M38 8.06094H40.9252V17.385H41.169L50.7064 8.06094H54.7895L44.3684 18.0249L55.4903 29.6344H51.2244L41.169 18.8476H40.9252V29.6344H38V8.06094Z" fill="#000F00"/>
<path d="M56.0521 15.1911H58.7945V29.6344H56.0521V15.1911ZM55.4122 10.0111C55.4122 9.4626 55.6052 8.99538 55.9912 8.60942C56.3974 8.20314 56.8748 8 57.4233 8C57.9718 8 58.439 8.20314 58.825 8.60942C59.2312 8.99538 59.4344 9.4626 59.4344 10.0111C59.4344 10.5596 59.2312 11.0369 58.825 11.4432C58.439 11.8292 57.9718 12.0222 57.4233 12.0222C56.8748 12.0222 56.3974 11.8292 55.9912 11.4432C55.6052 11.0369 55.4122 10.5596 55.4122 10.0111Z" fill="#000F00"/>
<path d="M69.6188 18.8172C69.2938 18.4109 68.8875 18.0757 68.4 17.8116C67.9328 17.5272 67.3538 17.385 66.6631 17.385C66.0131 17.385 65.4443 17.5272 64.9568 17.8116C64.4895 18.0757 64.2559 18.4718 64.2559 19C64.2559 19.4266 64.388 19.7719 64.6521 20.036C64.9364 20.3001 65.2615 20.5134 65.6271 20.6759C66.0131 20.8384 66.4194 20.9603 66.846 21.0416C67.2725 21.1228 67.6382 21.1939 67.9429 21.2548C68.532 21.397 69.0805 21.5697 69.5883 21.7729C70.1165 21.976 70.5634 22.2401 70.9291 22.5651C71.315 22.8901 71.6096 23.2862 71.8127 23.7535C72.0362 24.2207 72.1479 24.7895 72.1479 25.4598C72.1479 26.2724 71.9752 26.9732 71.6299 27.5623C71.2846 28.1311 70.8376 28.5983 70.2892 28.964C69.7407 29.3296 69.111 29.5937 68.4 29.7562C67.7093 29.9187 67.0085 30 66.2975 30C65.099 30 64.0426 29.8172 63.1285 29.4515C62.2347 29.0859 61.4323 28.4155 60.7213 27.4404L62.7933 25.7341C63.2402 26.181 63.7379 26.5771 64.2864 26.9224C64.8349 27.2678 65.5052 27.4404 66.2975 27.4404C66.6428 27.4404 66.9882 27.41 67.3335 27.349C67.6991 27.2678 68.014 27.156 68.2781 27.0139C68.5625 26.8513 68.7859 26.6584 68.9485 26.4349C69.1313 26.1911 69.2227 25.9169 69.2227 25.6122C69.2227 25.2059 69.0906 24.8707 68.8266 24.6066C68.5828 24.3426 68.2781 24.1394 67.9124 23.9972C67.5671 23.8347 67.1913 23.7128 66.785 23.6316C66.3991 23.53 66.0537 23.4488 65.749 23.3878C65.1599 23.2456 64.6013 23.0831 64.0731 22.9003C63.5449 22.7175 63.0777 22.4737 62.6714 22.169C62.2652 21.8643 61.9401 21.4783 61.6964 21.0111C61.4526 20.5439 61.3307 19.9649 61.3307 19.2742C61.3307 18.5226 61.4831 17.8726 61.7878 17.3241C62.1128 16.7553 62.5292 16.2881 63.0371 15.9224C63.5653 15.5568 64.1544 15.2825 64.8044 15.0997C65.4748 14.9169 66.1451 14.8255 66.8155 14.8255C67.7906 14.8255 68.725 15.0083 69.6188 15.374C70.5126 15.7396 71.2236 16.349 71.7518 17.2022L69.6188 18.8172Z" fill="#000F00"/>
<path d="M74.3216 16.9585C75.0935 16.2475 75.9873 15.7193 77.003 15.374C78.0187 15.0083 79.0344 14.8255 80.0501 14.8255C81.1064 14.8255 82.0104 14.9575 82.762 15.2216C83.5339 15.4857 84.1637 15.8412 84.6512 16.2881C85.1387 16.735 85.4942 17.253 85.7177 17.8421C85.9615 18.4109 86.0833 19.0102 86.0833 19.6399V27.0139C86.0833 27.5217 86.0935 27.9889 86.1138 28.4155C86.1341 28.8421 86.1646 29.2484 86.2052 29.6344H83.7676C83.7066 28.903 83.6761 28.1717 83.6761 27.4404H83.6152C83.0058 28.3749 82.2846 29.0351 81.4518 29.4211C80.6189 29.807 79.654 30 78.557 30C77.8867 30 77.2468 29.9086 76.6374 29.7258C76.0279 29.5429 75.4896 29.2687 75.0224 28.903C74.5755 28.5374 74.22 28.0905 73.9559 27.5623C73.6918 27.0139 73.5598 26.3841 73.5598 25.6731C73.5598 24.7387 73.7629 23.9566 74.1692 23.3269C74.5958 22.6971 75.1646 22.1893 75.8756 21.8033C76.6069 21.397 77.4499 21.1127 78.4047 20.9501C79.3797 20.7673 80.4158 20.6759 81.5127 20.6759H83.5238V20.0665C83.5238 19.7008 83.4527 19.3352 83.3105 18.9695C83.1683 18.6039 82.955 18.2789 82.6706 17.9945C82.3862 17.6898 82.0307 17.4561 81.6041 17.2936C81.1775 17.1108 80.6697 17.0194 80.0806 17.0194C79.5524 17.0194 79.0852 17.0702 78.6789 17.1717C78.2929 17.2733 77.9375 17.4054 77.6124 17.5679C77.2874 17.7101 76.9929 17.8827 76.7288 18.0859C76.4647 18.289 76.2108 18.482 75.967 18.6648L74.3216 16.9585ZM82.0612 22.687C81.4111 22.687 80.7408 22.7276 80.0501 22.8089C79.3797 22.8698 78.7602 23.0018 78.1914 23.205C77.6429 23.4081 77.1858 23.6925 76.8202 24.0582C76.4748 24.4238 76.3022 24.891 76.3022 25.4598C76.3022 26.2927 76.5764 26.892 77.1249 27.2576C77.6937 27.6233 78.4555 27.8061 79.4102 27.8061C80.1618 27.8061 80.8017 27.6842 81.3299 27.4404C81.858 27.1764 82.2846 26.8412 82.6097 26.4349C82.9347 26.0286 83.1683 25.5817 83.3105 25.0942C83.4527 24.5863 83.5238 24.0886 83.5238 23.6011V22.687H82.0612Z" fill="#000F00"/>
<path d="M88.8426 15.1911H91.585V17.4155H91.646C91.9913 16.6436 92.5906 16.024 93.4437 15.5568C94.2969 15.0693 95.2821 14.8255 96.3994 14.8255C97.0901 14.8255 97.7503 14.9372 98.38 15.1607C99.0301 15.3638 99.5887 15.6888 100.056 16.1357C100.543 16.5826 100.929 17.1616 101.214 17.8726C101.498 18.5633 101.64 19.386 101.64 20.3407V29.6344H98.898V21.1025C98.898 20.4321 98.8066 19.8633 98.6238 19.3961C98.441 18.9086 98.1972 18.5226 97.8925 18.2382C97.5878 17.9335 97.2323 17.7202 96.826 17.5983C96.44 17.4561 96.0338 17.385 95.6072 17.385C95.0384 17.385 94.5102 17.4765 94.0227 17.6593C93.5351 17.8421 93.1086 18.1367 92.7429 18.5429C92.3773 18.9289 92.0929 19.4266 91.8897 20.036C91.6866 20.6454 91.585 21.3666 91.585 22.1994V29.6344H88.8426V15.1911Z" fill="#000F00"/>
<path d="M112.031 8.06094H119.557C121.08 8.06094 122.411 8.23361 123.549 8.57895C124.706 8.92428 125.702 9.39151 126.535 9.98061C127.388 10.5494 128.089 11.2096 128.637 11.9612C129.206 12.7128 129.653 13.4848 129.978 14.277C130.303 15.0693 130.537 15.8615 130.679 16.6537C130.821 17.446 130.892 18.1773 130.892 18.8476C130.892 20.229 130.638 21.5697 130.13 22.8698C129.622 24.1496 128.871 25.2973 127.875 26.313C126.88 27.3084 125.641 28.1108 124.158 28.7202C122.695 29.3296 120.999 29.6344 119.069 29.6344H112.031V8.06094ZM114.956 26.892H118.643C119.882 26.892 121.05 26.7295 122.147 26.4044C123.264 26.0591 124.239 25.5512 125.072 24.8809C125.905 24.2105 126.565 23.3777 127.053 22.3823C127.54 21.3666 127.784 20.1884 127.784 18.8476C127.784 18.157 127.672 17.3546 127.449 16.4404C127.225 15.506 126.799 14.6223 126.169 13.7895C125.56 12.9566 124.706 12.2558 123.609 11.687C122.513 11.0979 121.091 10.8033 119.344 10.8033H114.956V26.892Z" fill="#000F00"/>
<path d="M135.408 22.4127C135.408 23.144 135.52 23.8246 135.743 24.4543C135.967 25.0637 136.282 25.5919 136.688 26.0388C137.094 26.4654 137.592 26.8107 138.181 27.0748C138.77 27.3186 139.43 27.4404 140.162 27.4404C140.893 27.4404 141.553 27.3186 142.142 27.0748C142.731 26.8107 143.229 26.4654 143.635 26.0388C144.042 25.5919 144.356 25.0637 144.58 24.4543C144.803 23.8246 144.915 23.144 144.915 22.4127C144.915 21.6814 144.803 21.0111 144.58 20.4017C144.356 19.7719 144.042 19.2438 143.635 18.8172C143.229 18.3703 142.731 18.0249 142.142 17.7812C141.553 17.5171 140.893 17.385 140.162 17.385C139.43 17.385 138.77 17.5171 138.181 17.7812C137.592 18.0249 137.094 18.3703 136.688 18.8172C136.282 19.2438 135.967 19.7719 135.743 20.4017C135.52 21.0111 135.408 21.6814 135.408 22.4127ZM132.483 22.4127C132.483 21.3564 132.676 20.3712 133.062 19.4571C133.468 18.5429 134.017 17.7405 134.707 17.0499C135.398 16.3592 136.211 15.8209 137.145 15.4349C138.079 15.0286 139.085 14.8255 140.162 14.8255C141.238 14.8255 142.244 15.0286 143.178 15.4349C144.113 15.8209 144.925 16.3592 145.616 17.0499C146.307 17.7405 146.845 18.5429 147.231 19.4571C147.637 20.3712 147.84 21.3564 147.84 22.4127C147.84 23.4691 147.637 24.4645 147.231 25.3989C146.845 26.313 146.307 27.1154 145.616 27.8061C144.925 28.4765 144.113 29.0148 143.178 29.4211C142.244 29.807 141.238 30 140.162 30C139.085 30 138.079 29.807 137.145 29.4211C136.211 29.0148 135.398 28.4765 134.707 27.8061C134.017 27.1154 133.468 26.313 133.062 25.3989C132.676 24.4645 132.483 23.4691 132.483 22.4127Z" fill="#000F00"/>
<path d="M157.736 18.8172C157.411 18.4109 157.004 18.0757 156.517 17.8116C156.05 17.5272 155.471 17.385 154.78 17.385C154.13 17.385 153.561 17.5272 153.074 17.8116C152.606 18.0757 152.373 18.4718 152.373 19C152.373 19.4266 152.505 19.7719 152.769 20.036C153.053 20.3001 153.378 20.5134 153.744 20.6759C154.13 20.8384 154.536 20.9603 154.963 21.0416C155.389 21.1228 155.755 21.1939 156.06 21.2548C156.649 21.397 157.197 21.5697 157.705 21.7729C158.233 21.976 158.68 22.2401 159.046 22.5651C159.432 22.8901 159.726 23.2862 159.93 23.7535C160.153 24.2207 160.265 24.7895 160.265 25.4598C160.265 26.2724 160.092 26.9732 159.747 27.5623C159.401 28.1311 158.955 28.5983 158.406 28.964C157.858 29.3296 157.228 29.5937 156.517 29.7562C155.826 29.9187 155.125 30 154.414 30C153.216 30 152.16 29.8172 151.245 29.4515C150.352 29.0859 149.549 28.4155 148.838 27.4404L150.91 25.7341C151.357 26.181 151.855 26.5771 152.403 26.9224C152.952 27.2678 153.622 27.4404 154.414 27.4404C154.76 27.4404 155.105 27.41 155.45 27.349C155.816 27.2678 156.131 27.156 156.395 27.0139C156.679 26.8513 156.903 26.6584 157.065 26.4349C157.248 26.1911 157.34 25.9169 157.34 25.6122C157.34 25.2059 157.208 24.8707 156.943 24.6066C156.7 24.3426 156.395 24.1394 156.029 23.9972C155.684 23.8347 155.308 23.7128 154.902 23.6316C154.516 23.53 154.171 23.4488 153.866 23.3878C153.277 23.2456 152.718 23.0831 152.19 22.9003C151.662 22.7175 151.195 22.4737 150.788 22.169C150.382 21.8643 150.057 21.4783 149.813 21.0111C149.569 20.5439 149.448 19.9649 149.448 19.2742C149.448 18.5226 149.6 17.8726 149.905 17.3241C150.23 16.7553 150.646 16.2881 151.154 15.9224C151.682 15.5568 152.271 15.2825 152.921 15.0997C153.592 14.9169 154.262 14.8255 154.932 14.8255C155.907 14.8255 156.842 15.0083 157.736 15.374C158.63 15.7396 159.341 16.349 159.869 17.2022L157.736 18.8172Z" fill="#000F00"/>
<path d="M170.117 17.5679H166.186V24.1191C166.186 24.5254 166.197 24.9317 166.217 25.338C166.237 25.7239 166.308 26.0794 166.43 26.4044C166.572 26.7091 166.775 26.9631 167.04 27.1662C167.324 27.349 167.73 27.4404 168.258 27.4404C168.583 27.4404 168.919 27.41 169.264 27.349C169.609 27.2881 169.924 27.1764 170.209 27.0139V29.5125C169.884 29.6953 169.457 29.8172 168.929 29.8781C168.421 29.9594 168.025 30 167.74 30C166.684 30 165.861 29.8578 165.272 29.5734C164.703 29.2687 164.277 28.8827 163.992 28.4155C163.728 27.9483 163.566 27.4303 163.505 26.8615C163.464 26.2724 163.444 25.6833 163.444 25.0942V17.5679H160.275V15.1911H163.444V11.1385H166.186V15.1911H170.117V17.5679Z" fill="#000F00"/>
<defs>
<linearGradient id="paint0_linear_142_1760" x1="7.45084" y1="5.34857" x2="14.1362" y2="25.9778" gradientUnits="userSpaceOnUse">
<stop stop-color="#97D251"/>
<stop offset="1" stop-color="#97D251" stop-opacity="0"/>
</linearGradient>
<clipPath id="clip0_142_1760">
<rect width="28.2697" height="34" fill="white"/>
</clipPath>
</defs>
</svg>
