<svg width="29" height="34" viewBox="0 0 29 34" fill="none" xmlns="http://www.w3.org/2000/svg">
<g clip-path="url(#clip0_101_1876)">
<path d="M14.1362 29.416V4.92773C12.6081 5.88279 8.97893 8.02273 4.01264 9.16879C3.82163 15.0901 5.73174 25.2901 14.1362 29.416Z" fill="url(#paint0_linear_101_1876)"/>
<path fill-rule="evenodd" clip-rule="evenodd" d="M0.572509 5.92174C3.11933 5.73073 9.39722 4.31725 14.1343 0.191406C18.8714 4.31725 25.1493 5.73073 27.6961 5.92174C28.8422 12.7345 27.7343 27.3914 14.1343 33.8094C0.534306 27.3914 -0.573559 12.7345 0.572509 5.92174ZM5.43518 18.7683C4.2673 15.3813 3.96279 11.9479 4.07381 9.22196C6.92576 8.5807 10.6657 7.29454 14.1343 4.98327C17.6029 7.29454 21.3429 8.5807 24.1948 9.22196C24.3058 11.9479 24.0013 15.3813 22.8334 18.7683C21.4289 22.8416 18.8091 26.7874 14.1343 29.4999C9.45952 26.7874 6.83969 22.8416 5.43518 18.7683Z" fill="#009900"/>
<path d="M19.2931 24.8318C15.4423 22.2747 10.7613 23.7664 8.97852 24.8318C9.81048 26.0226 12.4167 28.461 14.1358 29.2251C15.8549 28.461 18.4612 26.0226 19.2931 24.8318Z" fill="#009900"/>
<path d="M14.8267 25.4044C14.6023 23.385 13.615 18.9614 11.4609 17.4228C12.5188 17.3587 14.6728 18.8653 14.8267 25.4044C14.987 21.8464 16.5384 14.2109 21.462 12.1338C19.5067 13.0634 15.5191 17.0189 15.2113 25.4044H15.4998C15.628 22.9362 16.7307 17.9421 20.1157 17.7113C18.8656 18.5447 16.2307 21.2501 15.6922 25.4044H15.4998H15.2113H14.8267Z" fill="#009900"/>
<path d="M12.4219 15.1142C13.1271 15.6813 14.576 17.5523 14.7298 20.4994C14.9606 16.0374 13.2874 15.0501 12.4219 15.1142Z" fill="#009900"/>
<path d="M17.7095 13.6719C17.4851 13.8962 17.1709 14.4604 17.7095 14.922C18.248 14.3835 17.9338 13.8642 17.7095 13.6719Z" fill="#009900"/>
<path d="M15.9785 15.5C15.8823 15.8526 15.8631 16.6155 16.5555 16.8463C16.9401 16.1539 16.3311 15.6603 15.9785 15.5Z" fill="#009900"/>
<path d="M16.7504 14.6338C16.6542 14.9864 16.6157 15.7108 17.2312 15.7878C17.5389 15.1723 17.0389 14.762 16.7504 14.6338Z" fill="#009900"/>
<path d="M18.4795 12.998C18.2871 13.2224 18.0179 13.7481 18.4795 14.0559C18.8693 13.7481 18.6419 13.2224 18.4795 12.998Z" fill="#009900"/>
<path d="M19.2495 12.3262C19.0892 12.5472 18.8648 13.0298 19.2495 13.1916C19.6341 13.0378 19.4098 12.5506 19.2495 12.3262Z" fill="#009900"/>
<path d="M20.2115 11.9414C20.0429 11.9735 19.7299 12.3261 19.8268 12.7107C20.2115 12.7107 20.2435 12.1338 20.2115 11.9414Z" fill="#009900"/>
<path d="M21.0773 11.5576C20.885 11.6217 20.5388 11.8461 20.6926 12.2308C20.8529 12.2308 21.1542 12.0962 21.0773 11.5576Z" fill="#009900"/>
<path d="M21.4591 11.9408C21.395 11.7805 21.3629 11.46 21.7476 11.46C21.7726 11.651 21.7476 11.842 21.4591 11.9408Z" fill="#009900"/>
<path d="M21.8457 11.9404C21.9098 11.8122 22.0381 11.6519 22.3265 11.7481C22.2304 11.9404 21.9739 12.0045 21.8457 11.9404Z" fill="#009900"/>
<path d="M17.1348 17.7115C17.263 17.3588 17.7695 16.7113 18.7696 16.9421C18.4618 17.7115 17.5515 17.7756 17.1348 17.7115Z" fill="#009900"/>
<path d="M17.7129 16.4615C17.9052 16.2051 18.4822 15.7307 19.2515 15.8845C18.8669 16.6538 18.0655 16.5897 17.7129 16.4615Z" fill="#009900"/>
<path d="M18.3848 15.4024C18.5451 15.178 19.0387 14.7869 19.7311 15.0177C19.4234 15.6332 18.7053 15.5306 18.3848 15.4024Z" fill="#009900"/>
<path d="M19.0586 14.5381C19.2189 14.3137 19.674 13.9227 20.2126 14.1535C19.9818 14.692 19.3471 14.6343 19.0586 14.5381Z" fill="#009900"/>
<path d="M19.7305 13.7674C19.8587 13.5751 20.1536 13.3443 20.6921 13.5751C20.5383 13.9598 20.0189 13.8316 19.7305 13.7674Z" fill="#009900"/>
<path d="M20.4023 13.0959C20.5626 12.9677 20.9601 12.7689 21.2679 12.9997C20.9601 13.3844 20.5626 13.2241 20.4023 13.0959Z" fill="#009900"/>
<path d="M21.1738 12.6146C21.3021 12.5184 21.6162 12.3645 21.847 12.5184C21.6162 12.8261 21.3021 12.7107 21.1738 12.6146Z" fill="#009900"/>
<path d="M21.6543 12.2303C21.7505 12.1342 21.9665 11.9658 22.2313 12.1342C21.9665 12.4161 21.8029 12.3265 21.6543 12.2303Z" fill="#009900"/>
</g>
<defs>
<linearGradient id="paint0_linear_101_1876" x1="7.45084" y1="5.34857" x2="14.1362" y2="25.9778" gradientUnits="userSpaceOnUse">
<stop stop-color="#97D251"/>
<stop offset="1" stop-color="#97D251" stop-opacity="0"/>
</linearGradient>
<clipPath id="clip0_101_1876">
<rect width="28.2697" height="34" fill="white"/>
</clipPath>
</defs>
</svg>
